<svg id="visual" viewBox="0 0 960 540" width="960" height="540" xmlns="http://www.w3.org/2000/svg" xmlns:xlink="http://www.w3.org/1999/xlink" version="1.1"><g stroke-width="1" stroke-linejoin="bevel"><path d="M522.3 259L501.3 189L442.7 307Z" fill="#297ea6" stroke="#297ea6"></path><path d="M501.3 189L436.7 168L442.7 307Z" fill="#081a28" stroke="#081a28"></path><path d="M501.3 189L446.7 110L436.7 168Z" fill="#246688" stroke="#246688"></path><path d="M306 206L307 273L436.7 168Z" fill="#277297" stroke="#277297"></path><path d="M436.7 168L307 273L442.7 307Z" fill="#19435d" stroke="#19435d"></path><path d="M303 124L306 206L436.7 168Z" fill="#19435d" stroke="#19435d"></path><path d="M307 273L388.7 388L442.7 307Z" fill="#246688" stroke="#246688"></path><path d="M612 325L628 284L522.3 259Z" fill="#15384f" stroke="#15384f"></path><path d="M612 325L522.3 259L540.3 397Z" fill="#297ea6" stroke="#297ea6"></path><path d="M522.3 259L635 156L501.3 189Z" fill="#19435d" stroke="#19435d"></path><path d="M501.3 189L535.3 64L446.7 110Z" fill="#297ea6" stroke="#297ea6"></path><path d="M540.3 397L522.3 259L442.7 307Z" fill="#112e42" stroke="#112e42"></path><path d="M457.7 427L540.3 397L442.7 307Z" fill="#081a28" stroke="#081a28"></path><path d="M388.7 388L457.7 427L442.7 307Z" fill="#205a7a" stroke="#205a7a"></path><path d="M446.7 110L303 124L436.7 168Z" fill="#00101c" stroke="#00101c"></path><path d="M306 206L226.3 182L307 273Z" fill="#1d4e6b" stroke="#1d4e6b"></path><path d="M616 86L535.3 64L501.3 189Z" fill="#112e42" stroke="#112e42"></path><path d="M446.7 110L406.7 0L303 124Z" fill="#205a7a" stroke="#205a7a"></path><path d="M307 273L319 376L388.7 388Z" fill="#112e42" stroke="#112e42"></path><path d="M388.7 388L324 474L457.7 427Z" fill="#297ea6" stroke="#297ea6"></path><path d="M628 284L635 156L522.3 259Z" fill="#297ea6" stroke="#297ea6"></path><path d="M457.7 427L529.3 439L540.3 397Z" fill="#112e42" stroke="#112e42"></path><path d="M540.3 397L672 427L612 325Z" fill="#19435d" stroke="#19435d"></path><path d="M635 156L616 86L501.3 189Z" fill="#112e42" stroke="#112e42"></path><path d="M303 124L226.3 182L306 206Z" fill="#0c2435" stroke="#0c2435"></path><path d="M307 273L222.3 350L319 376Z" fill="#19435d" stroke="#19435d"></path><path d="M547.3 0L406.7 0L535.3 64Z" fill="#19435d" stroke="#19435d"></path><path d="M535.3 64L406.7 0L446.7 110Z" fill="#277297" stroke="#277297"></path><path d="M303 124L241.3 117L226.3 182Z" fill="#081a28" stroke="#081a28"></path><path d="M297 0L241.3 117L303 124Z" fill="#0c2435" stroke="#0c2435"></path><path d="M616 86L547.3 0L535.3 64Z" fill="#081a28" stroke="#081a28"></path><path d="M188.3 290L222.3 350L307 273Z" fill="#00101c" stroke="#00101c"></path><path d="M319 376L324 474L388.7 388Z" fill="#205a7a" stroke="#205a7a"></path><path d="M214.3 463L324 474L319 376Z" fill="#112e42" stroke="#112e42"></path><path d="M457.7 427L507.3 540L529.3 439Z" fill="#0c2435" stroke="#0c2435"></path><path d="M226.3 182L188.3 290L307 273Z" fill="#205a7a" stroke="#205a7a"></path><path d="M143.7 268L188.3 290L226.3 182Z" fill="#00101c" stroke="#00101c"></path><path d="M664 540L672 427L529.3 439Z" fill="#00101c" stroke="#00101c"></path><path d="M529.3 439L672 427L540.3 397Z" fill="#081a28" stroke="#081a28"></path><path d="M612 325L725.7 353L628 284Z" fill="#081a28" stroke="#081a28"></path><path d="M628 284L724.7 142L635 156Z" fill="#15384f" stroke="#15384f"></path><path d="M635 156L724.7 142L616 86Z" fill="#297ea6" stroke="#297ea6"></path><path d="M616 86L625 0L547.3 0Z" fill="#1d4e6b" stroke="#1d4e6b"></path><path d="M751.7 295L724.7 142L628 284Z" fill="#19435d" stroke="#19435d"></path><path d="M406.7 0L297 0L303 124Z" fill="#081a28" stroke="#081a28"></path><path d="M672 427L725.7 353L612 325Z" fill="#19435d" stroke="#19435d"></path><path d="M772.7 0L625 0L616 86Z" fill="#112e42" stroke="#112e42"></path><path d="M725.7 353L751.7 295L628 284Z" fill="#246688" stroke="#246688"></path><path d="M395.7 540L507.3 540L457.7 427Z" fill="#0c2435" stroke="#0c2435"></path><path d="M324 474L395.7 540L457.7 427Z" fill="#205a7a" stroke="#205a7a"></path><path d="M139.7 186L143.7 268L226.3 182Z" fill="#00101c" stroke="#00101c"></path><path d="M188.3 290L128.7 364L222.3 350Z" fill="#246688" stroke="#246688"></path><path d="M222.3 350L214.3 463L319 376Z" fill="#246688" stroke="#246688"></path><path d="M139.7 186L226.3 182L241.3 117Z" fill="#15384f" stroke="#15384f"></path><path d="M297 0L246.3 0L241.3 117Z" fill="#297ea6" stroke="#297ea6"></path><path d="M99.7 99L139.7 186L241.3 117Z" fill="#081a28" stroke="#081a28"></path><path d="M128.7 364L214.3 463L222.3 350Z" fill="#1d4e6b" stroke="#1d4e6b"></path><path d="M324 474L297 540L395.7 540Z" fill="#205a7a" stroke="#205a7a"></path><path d="M751.7 295L769.7 118L724.7 142Z" fill="#297ea6" stroke="#297ea6"></path><path d="M724.7 142L772.7 0L616 86Z" fill="#246688" stroke="#246688"></path><path d="M214.3 463L297 540L324 474Z" fill="#277297" stroke="#277297"></path><path d="M0 232L128.7 364L143.7 268Z" fill="#00101c" stroke="#00101c"></path><path d="M143.7 268L128.7 364L188.3 290Z" fill="#15384f" stroke="#15384f"></path><path d="M672 427L762.7 415L725.7 353Z" fill="#297ea6" stroke="#297ea6"></path><path d="M725.7 353L851.3 308L751.7 295Z" fill="#00101c" stroke="#00101c"></path><path d="M751.7 295L881.3 164L769.7 118Z" fill="#15384f" stroke="#15384f"></path><path d="M765.7 540L762.7 415L672 427Z" fill="#246688" stroke="#246688"></path><path d="M507.3 540L664 540L529.3 439Z" fill="#277297" stroke="#277297"></path><path d="M144.7 540L220.3 540L214.3 463Z" fill="#00101c" stroke="#00101c"></path><path d="M214.3 463L220.3 540L297 540Z" fill="#081a28" stroke="#081a28"></path><path d="M246.3 0L99.7 99L241.3 117Z" fill="#297ea6" stroke="#297ea6"></path><path d="M139.7 186L0 232L143.7 268Z" fill="#0c2435" stroke="#0c2435"></path><path d="M854.3 90L772.7 0L769.7 118Z" fill="#19435d" stroke="#19435d"></path><path d="M769.7 118L772.7 0L724.7 142Z" fill="#277297" stroke="#277297"></path><path d="M830.3 418L851.3 308L762.7 415Z" fill="#00101c" stroke="#00101c"></path><path d="M762.7 415L851.3 308L725.7 353Z" fill="#00101c" stroke="#00101c"></path><path d="M0 387L98.7 434L128.7 364Z" fill="#0c2435" stroke="#0c2435"></path><path d="M128.7 364L98.7 434L214.3 463Z" fill="#277297" stroke="#277297"></path><path d="M765.7 540L830.3 418L762.7 415Z" fill="#246688" stroke="#246688"></path><path d="M830.3 418L868.3 332L851.3 308Z" fill="#277297" stroke="#277297"></path><path d="M881.3 164L854.3 90L769.7 118Z" fill="#277297" stroke="#277297"></path><path d="M881.3 164L751.7 295L851.3 308Z" fill="#1d4e6b" stroke="#1d4e6b"></path><path d="M664 540L765.7 540L672 427Z" fill="#112e42" stroke="#112e42"></path><path d="M960 200L881.3 164L851.3 308Z" fill="#00101c" stroke="#00101c"></path><path d="M98.7 434L144.7 540L214.3 463Z" fill="#081a28" stroke="#081a28"></path><path d="M246.3 0L93.7 0L99.7 99Z" fill="#112e42" stroke="#112e42"></path><path d="M0 184L0 232L139.7 186Z" fill="#246688" stroke="#246688"></path><path d="M0 184L139.7 186L99.7 99Z" fill="#205a7a" stroke="#205a7a"></path><path d="M98.7 434L0 540L144.7 540Z" fill="#0c2435" stroke="#0c2435"></path><path d="M0 72L0 184L99.7 99Z" fill="#15384f" stroke="#15384f"></path><path d="M765.7 540L827.3 540L830.3 418Z" fill="#00101c" stroke="#00101c"></path><path d="M960 333L960 287L868.3 332Z" fill="#081a28" stroke="#081a28"></path><path d="M0 232L0 387L128.7 364Z" fill="#297ea6" stroke="#297ea6"></path><path d="M93.7 0L0 72L99.7 99Z" fill="#246688" stroke="#246688"></path><path d="M960 88L886.3 0L854.3 90Z" fill="#112e42" stroke="#112e42"></path><path d="M854.3 90L886.3 0L772.7 0Z" fill="#0c2435" stroke="#0c2435"></path><path d="M960 287L960 200L851.3 308Z" fill="#00101c" stroke="#00101c"></path><path d="M881.3 164L960 88L854.3 90Z" fill="#1d4e6b" stroke="#1d4e6b"></path><path d="M960 287L851.3 308L868.3 332Z" fill="#1d4e6b" stroke="#1d4e6b"></path><path d="M960 333L868.3 332L960 410Z" fill="#19435d" stroke="#19435d"></path><path d="M0 387L0 465L98.7 434Z" fill="#19435d" stroke="#19435d"></path><path d="M960 410L868.3 332L830.3 418Z" fill="#297ea6" stroke="#297ea6"></path><path d="M93.7 0L0 0L0 72Z" fill="#00101c" stroke="#00101c"></path><path d="M960 200L960 88L881.3 164Z" fill="#112e42" stroke="#112e42"></path><path d="M960 540L960 410L830.3 418Z" fill="#205a7a" stroke="#205a7a"></path><path d="M0 465L0 540L98.7 434Z" fill="#1d4e6b" stroke="#1d4e6b"></path><path d="M960 88L960 0L886.3 0Z" fill="#081a28" stroke="#081a28"></path><path d="M827.3 540L960 540L830.3 418Z" fill="#246688" stroke="#246688"></path></g></svg>