<svg id="visual" viewBox="0 0 960 540" width="960" height="540" xmlns="http://www.w3.org/2000/svg" xmlns:xlink="http://www.w3.org/1999/xlink" version="1.1"><g stroke-width="1" stroke-linejoin="bevel"><path d="M449.4 221.4L522.6 201.3L481.4 190.3Z" fill="#5e5e5e" stroke="#5e5e5e"></path><path d="M606.9 272.4L570.6 219.4L547.6 356.6Z" fill="#919191" stroke="#919191"></path><path d="M313.1 191.3L393.4 267.6L449.4 221.4Z" fill="#474747" stroke="#474747"></path><path d="M547.6 356.6L570.6 219.4L522.6 201.3Z" fill="#474747" stroke="#474747"></path><path d="M547.6 356.6L522.6 201.3L449.4 221.4Z" fill="#474747" stroke="#474747"></path><path d="M393.4 267.6L435.4 355.7L449.4 221.4Z" fill="#000000" stroke="#000000"></path><path d="M435.4 355.7L547.6 356.6L449.4 221.4Z" fill="#ffffff" stroke="#ffffff"></path><path d="M606.9 272.4L632.9 165.3L570.6 219.4Z" fill="#e2e2e2" stroke="#e2e2e2"></path><path d="M570.6 219.4L632.9 165.3L522.6 201.3Z" fill="#1b1b1b" stroke="#1b1b1b"></path><path d="M522.6 201.3L519.6 51.1L481.4 190.3Z" fill="#c6c6c6" stroke="#c6c6c6"></path><path d="M547.6 356.6L593.9 352.6L606.9 272.4Z" fill="#ababab" stroke="#ababab"></path><path d="M713.2 218.4L674.2 155.3L632.9 165.3Z" fill="#ffffff" stroke="#ffffff"></path><path d="M435.4 355.7L564.6 385.7L547.6 356.6Z" fill="#5e5e5e" stroke="#5e5e5e"></path><path d="M547.6 356.6L564.6 385.7L593.9 352.6Z" fill="#919191" stroke="#919191"></path><path d="M668.2 399.7L650.2 311.6L593.9 352.6Z" fill="#000000" stroke="#000000"></path><path d="M593.9 352.6L650.2 311.6L606.9 272.4Z" fill="#919191" stroke="#919191"></path><path d="M393.4 267.6L389.1 379.7L435.4 355.7Z" fill="#919191" stroke="#919191"></path><path d="M435.4 355.7L410.4 436.9L564.6 385.7Z" fill="#5e5e5e" stroke="#5e5e5e"></path><path d="M632.9 165.3L576.9 71.1L522.6 201.3Z" fill="#303030" stroke="#303030"></path><path d="M408.4 57.1L313.1 191.3L449.4 221.4Z" fill="#5e5e5e" stroke="#5e5e5e"></path><path d="M408.4 57.1L449.4 221.4L481.4 190.3Z" fill="#303030" stroke="#303030"></path><path d="M393.4 267.6L317.1 337.6L389.1 379.7Z" fill="#919191" stroke="#919191"></path><path d="M576.9 71.1L519.6 51.1L522.6 201.3Z" fill="#1b1b1b" stroke="#1b1b1b"></path><path d="M313.1 191.3L306.1 197.4L393.4 267.6Z" fill="#777777" stroke="#777777"></path><path d="M519.6 51.1L408.4 57.1L481.4 190.3Z" fill="#474747" stroke="#474747"></path><path d="M313.1 191.3L270.8 197.3L306.1 197.4Z" fill="#474747" stroke="#474747"></path><path d="M713.2 218.4L632.9 165.3L606.9 272.4Z" fill="#1b1b1b" stroke="#1b1b1b"></path><path d="M632.9 165.3L655.2 62.1L576.9 71.1Z" fill="#c6c6c6" stroke="#c6c6c6"></path><path d="M306.1 197.4L317.1 337.6L393.4 267.6Z" fill="#ababab" stroke="#ababab"></path><path d="M561.9 492.9L597.9 418.7L564.6 385.7Z" fill="#919191" stroke="#919191"></path><path d="M564.6 385.7L597.9 418.7L593.9 352.6Z" fill="#777777" stroke="#777777"></path><path d="M298.8 427.7L410.4 436.9L389.1 379.7Z" fill="#ffffff" stroke="#ffffff"></path><path d="M389.1 379.7L410.4 436.9L435.4 355.7Z" fill="#ababab" stroke="#ababab"></path><path d="M650.2 311.6L713.2 218.4L606.9 272.4Z" fill="#c6c6c6" stroke="#c6c6c6"></path><path d="M760.5 301.6L713.2 218.4L650.2 311.6Z" fill="#303030" stroke="#303030"></path><path d="M239.8 118.1L270.8 197.3L313.1 191.3Z" fill="#474747" stroke="#474747"></path><path d="M306.1 197.4L247.8 310.6L317.1 337.6Z" fill="#919191" stroke="#919191"></path><path d="M636.9 0L477.6 0L519.6 51.1Z" fill="#303030" stroke="#303030"></path><path d="M519.6 51.1L477.6 0L408.4 57.1Z" fill="#777777" stroke="#777777"></path><path d="M674.2 155.3L655.2 62.1L632.9 165.3Z" fill="#777777" stroke="#777777"></path><path d="M576.9 71.1L636.9 0L519.6 51.1Z" fill="#ffffff" stroke="#ffffff"></path><path d="M685.2 0L655.2 62.1L795.5 45.1Z" fill="#1b1b1b" stroke="#1b1b1b"></path><path d="M387.1 0L370.1 29.1L408.4 57.1Z" fill="#ffffff" stroke="#ffffff"></path><path d="M408.4 57.1L370.1 29.1L313.1 191.3Z" fill="#5e5e5e" stroke="#5e5e5e"></path><path d="M597.9 418.7L668.2 399.7L593.9 352.6Z" fill="#474747" stroke="#474747"></path><path d="M477.6 0L417.4 0L408.4 57.1Z" fill="#e2e2e2" stroke="#e2e2e2"></path><path d="M417.4 0L387.1 0L408.4 57.1Z" fill="#ffffff" stroke="#ffffff"></path><path d="M202.5 188.4L224.8 266.4L270.8 197.3Z" fill="#1b1b1b" stroke="#1b1b1b"></path><path d="M224.8 266.4L247.8 310.6L306.1 197.4Z" fill="#919191" stroke="#919191"></path><path d="M317.1 337.6L298.8 427.7L389.1 379.7Z" fill="#c6c6c6" stroke="#c6c6c6"></path><path d="M507.6 510.9L561.9 492.9L564.6 385.7Z" fill="#000000" stroke="#000000"></path><path d="M597.9 418.7L684.2 479.9L668.2 399.7Z" fill="#c6c6c6" stroke="#c6c6c6"></path><path d="M270.8 197.3L224.8 266.4L306.1 197.4Z" fill="#ffffff" stroke="#ffffff"></path><path d="M239.8 118.1L313.1 191.3L370.1 29.1Z" fill="#919191" stroke="#919191"></path><path d="M247.8 310.6L298.8 427.7L317.1 337.6Z" fill="#e2e2e2" stroke="#e2e2e2"></path><path d="M410.4 436.9L507.6 510.9L564.6 385.7Z" fill="#5e5e5e" stroke="#5e5e5e"></path><path d="M216.8 469.9L298.8 427.7L247.8 310.6Z" fill="#919191" stroke="#919191"></path><path d="M685.2 0L636.9 0L655.2 62.1Z" fill="#919191" stroke="#919191"></path><path d="M655.2 62.1L636.9 0L576.9 71.1Z" fill="#ffffff" stroke="#ffffff"></path><path d="M668.2 399.7L760.5 301.6L650.2 311.6Z" fill="#e2e2e2" stroke="#e2e2e2"></path><path d="M797.5 127.3L655.2 62.1L674.2 155.3Z" fill="#919191" stroke="#919191"></path><path d="M178.5 112.1L239.8 118.1L229.8 0Z" fill="#ababab" stroke="#ababab"></path><path d="M445.4 540L507.6 510.9L410.4 436.9Z" fill="#000000" stroke="#000000"></path><path d="M239.8 118.1L202.5 188.4L270.8 197.3Z" fill="#e2e2e2" stroke="#e2e2e2"></path><path d="M298.8 427.7L321.1 474.9L410.4 436.9Z" fill="#777777" stroke="#777777"></path><path d="M797.5 127.3L674.2 155.3L713.2 218.4Z" fill="#ababab" stroke="#ababab"></path><path d="M371.1 540L445.4 540L410.4 436.9Z" fill="#ffffff" stroke="#ffffff"></path><path d="M591.9 540L684.2 479.9L561.9 492.9Z" fill="#e2e2e2" stroke="#e2e2e2"></path><path d="M561.9 492.9L684.2 479.9L597.9 418.7Z" fill="#303030" stroke="#303030"></path><path d="M668.2 399.7L782.5 357.7L760.5 301.6Z" fill="#ffffff" stroke="#ffffff"></path><path d="M563.6 540L561.9 492.9L507.6 510.9Z" fill="#000000" stroke="#000000"></path><path d="M445.4 540L563.6 540L507.6 510.9Z" fill="#919191" stroke="#919191"></path><path d="M799.5 418.9L782.5 357.7L668.2 399.7Z" fill="#000000" stroke="#000000"></path><path d="M823.5 276.4L797.5 127.3L713.2 218.4Z" fill="#303030" stroke="#303030"></path><path d="M563.6 540L591.9 540L561.9 492.9Z" fill="#ffffff" stroke="#ffffff"></path><path d="M823.5 276.4L713.2 218.4L760.5 301.6Z" fill="#919191" stroke="#919191"></path><path d="M321.1 474.9L371.1 540L410.4 436.9Z" fill="#5e5e5e" stroke="#5e5e5e"></path><path d="M782.5 357.7L823.5 276.4L760.5 301.6Z" fill="#c6c6c6" stroke="#c6c6c6"></path><path d="M229.8 0L239.8 118.1L370.1 29.1Z" fill="#919191" stroke="#919191"></path><path d="M239.8 118.1L178.5 112.1L202.5 188.4Z" fill="#777777" stroke="#777777"></path><path d="M202.5 188.4L141.5 279.6L224.8 266.4Z" fill="#919191" stroke="#919191"></path><path d="M387.1 0L229.8 0L370.1 29.1Z" fill="#1b1b1b" stroke="#1b1b1b"></path><path d="M135.5 191.3L141.5 279.6L202.5 188.4Z" fill="#000000" stroke="#000000"></path><path d="M224.8 266.4L141.5 279.6L247.8 310.6Z" fill="#777777" stroke="#777777"></path><path d="M216.8 469.9L302.8 540L321.1 474.9Z" fill="#ffffff" stroke="#ffffff"></path><path d="M321.1 474.9L302.8 540L371.1 540Z" fill="#ffffff" stroke="#ffffff"></path><path d="M900.7 77.1L795.5 45.1L797.5 127.3Z" fill="#ababab" stroke="#ababab"></path><path d="M797.5 127.3L795.5 45.1L655.2 62.1Z" fill="#000000" stroke="#000000"></path><path d="M96.3 153.3L135.5 191.3L178.5 112.1Z" fill="#c6c6c6" stroke="#c6c6c6"></path><path d="M178.5 112.1L135.5 191.3L202.5 188.4Z" fill="#ababab" stroke="#ababab"></path><path d="M782.5 357.7L869.7 354.7L823.5 276.4Z" fill="#777777" stroke="#777777"></path><path d="M684.2 479.9L799.5 418.9L668.2 399.7Z" fill="#919191" stroke="#919191"></path><path d="M753.5 540L799.5 418.9L684.2 479.9Z" fill="#000000" stroke="#000000"></path><path d="M216.8 469.9L321.1 474.9L298.8 427.7Z" fill="#5e5e5e" stroke="#5e5e5e"></path><path d="M133.5 366.7L216.8 469.9L247.8 310.6Z" fill="#ffffff" stroke="#ffffff"></path><path d="M795.5 45.1L789.5 0L685.2 0Z" fill="#5e5e5e" stroke="#5e5e5e"></path><path d="M823.5 276.4L873.7 217.4L797.5 127.3Z" fill="#ababab" stroke="#ababab"></path><path d="M795.5 45.1L882.7 0L789.5 0Z" fill="#1b1b1b" stroke="#1b1b1b"></path><path d="M908.7 334.6L873.7 217.4L823.5 276.4Z" fill="#000000" stroke="#000000"></path><path d="M62.3 275.4L133.5 366.7L141.5 279.6Z" fill="#e2e2e2" stroke="#e2e2e2"></path><path d="M141.5 279.6L133.5 366.7L247.8 310.6Z" fill="#c6c6c6" stroke="#c6c6c6"></path><path d="M591.9 540L740.2 540L684.2 479.9Z" fill="#c6c6c6" stroke="#c6c6c6"></path><path d="M881.7 484.9L869.7 354.7L799.5 418.9Z" fill="#919191" stroke="#919191"></path><path d="M799.5 418.9L869.7 354.7L782.5 357.7Z" fill="#e2e2e2" stroke="#e2e2e2"></path><path d="M740.2 540L753.5 540L684.2 479.9Z" fill="#ababab" stroke="#ababab"></path><path d="M42.3 56.1L96.3 153.3L178.5 112.1Z" fill="#777777" stroke="#777777"></path><path d="M135.5 191.3L62.3 275.4L141.5 279.6Z" fill="#ababab" stroke="#ababab"></path><path d="M960 230.4L891.7 157.3L873.7 217.4Z" fill="#777777" stroke="#777777"></path><path d="M873.7 217.4L891.7 157.3L797.5 127.3Z" fill="#ababab" stroke="#ababab"></path><path d="M229.8 0L158.5 0L178.5 112.1Z" fill="#c6c6c6" stroke="#c6c6c6"></path><path d="M131.5 481.9L219.5 540L216.8 469.9Z" fill="#000000" stroke="#000000"></path><path d="M216.8 469.9L219.5 540L302.8 540Z" fill="#000000" stroke="#000000"></path><path d="M960 366.7L908.7 334.6L869.7 354.7Z" fill="#e2e2e2" stroke="#e2e2e2"></path><path d="M869.7 354.7L908.7 334.6L823.5 276.4Z" fill="#5e5e5e" stroke="#5e5e5e"></path><path d="M58.3 273.6L62.3 275.4L135.5 191.3Z" fill="#e2e2e2" stroke="#e2e2e2"></path><path d="M133.5 366.7L131.5 481.9L216.8 469.9Z" fill="#474747" stroke="#474747"></path><path d="M96.3 153.3L58.3 273.6L135.5 191.3Z" fill="#5e5e5e" stroke="#5e5e5e"></path><path d="M0 385.7L44.3 430.7L133.5 366.7Z" fill="#000000" stroke="#000000"></path><path d="M960 110.3L900.7 77.1L891.7 157.3Z" fill="#1b1b1b" stroke="#1b1b1b"></path><path d="M891.7 157.3L900.7 77.1L797.5 127.3Z" fill="#c6c6c6" stroke="#c6c6c6"></path><path d="M100.3 497.9L131.5 481.9L44.3 430.7Z" fill="#e2e2e2" stroke="#e2e2e2"></path><path d="M158.5 0L110.3 0L178.5 112.1Z" fill="#777777" stroke="#777777"></path><path d="M96.3 153.3L0 248.4L58.3 273.6Z" fill="#e2e2e2" stroke="#e2e2e2"></path><path d="M900.7 77.1L882.7 0L795.5 45.1Z" fill="#ababab" stroke="#ababab"></path><path d="M753.5 540L881.7 484.9L799.5 418.9Z" fill="#303030" stroke="#303030"></path><path d="M908.7 334.6L960 230.4L873.7 217.4Z" fill="#303030" stroke="#303030"></path><path d="M900.7 77.1L960 58.1L882.7 0Z" fill="#5e5e5e" stroke="#5e5e5e"></path><path d="M960 326.6L960 230.4L908.7 334.6Z" fill="#1b1b1b" stroke="#1b1b1b"></path><path d="M44.3 430.7L131.5 481.9L133.5 366.7Z" fill="#919191" stroke="#919191"></path><path d="M131.5 481.9L92.3 540L219.5 540Z" fill="#e2e2e2" stroke="#e2e2e2"></path><path d="M960 366.7L960 326.6L908.7 334.6Z" fill="#c6c6c6" stroke="#c6c6c6"></path><path d="M110.3 0L42.3 56.1L178.5 112.1Z" fill="#303030" stroke="#303030"></path><path d="M960 230.4L960 110.3L891.7 157.3Z" fill="#c6c6c6" stroke="#c6c6c6"></path><path d="M960 462.9L960 366.7L869.7 354.7Z" fill="#1b1b1b" stroke="#1b1b1b"></path><path d="M0 317.6L62.3 275.4L58.3 273.6Z" fill="#303030" stroke="#303030"></path><path d="M0 317.6L133.5 366.7L62.3 275.4Z" fill="#ffffff" stroke="#ffffff"></path><path d="M0 109.3L0 248.4L96.3 153.3Z" fill="#000000" stroke="#000000"></path><path d="M0 248.4L0 317.6L58.3 273.6Z" fill="#474747" stroke="#474747"></path><path d="M960 110.3L960 58.1L900.7 77.1Z" fill="#777777" stroke="#777777"></path><path d="M0 540L92.3 540L100.3 497.9Z" fill="#000000" stroke="#000000"></path><path d="M100.3 497.9L92.3 540L131.5 481.9Z" fill="#474747" stroke="#474747"></path><path d="M42.3 56.1L0 109.3L96.3 153.3Z" fill="#000000" stroke="#000000"></path><path d="M753.5 540L899.7 540L881.7 484.9Z" fill="#e2e2e2" stroke="#e2e2e2"></path><path d="M881.7 484.9L960 462.9L869.7 354.7Z" fill="#ababab" stroke="#ababab"></path><path d="M0 317.6L0 385.7L133.5 366.7Z" fill="#ababab" stroke="#ababab"></path><path d="M44.3 430.7L0 540L100.3 497.9Z" fill="#5e5e5e" stroke="#5e5e5e"></path><path d="M899.7 540L960 462.9L881.7 484.9Z" fill="#c6c6c6" stroke="#c6c6c6"></path><path d="M960 58.1L960 0L882.7 0Z" fill="#474747" stroke="#474747"></path><path d="M0 0L0 55.1L42.3 56.1Z" fill="#5e5e5e" stroke="#5e5e5e"></path><path d="M42.3 56.1L0 55.1L0 109.3Z" fill="#ffffff" stroke="#ffffff"></path><path d="M0 385.7L0 425.9L44.3 430.7Z" fill="#919191" stroke="#919191"></path><path d="M110.3 0L0 0L42.3 56.1Z" fill="#474747" stroke="#474747"></path><path d="M899.7 540L960 540L960 462.9Z" fill="#e2e2e2" stroke="#e2e2e2"></path><path d="M0 425.9L0 540L44.3 430.7Z" fill="#777777" stroke="#777777"></path></g></svg>